						<svg
							xmlns="http://www.w3.org/2000/svg"
							viewBox="0 0 512 512"
							class="h-8 text-blue-700"
						>
							    path
								fill="currentColor"
								d="M256 8C119 8 8 119 8 256c0 66.6 26.3 129.4 73.8 176.6l.1.1c47.2 47.4 109.9 74.1 177.1 74.1s129.9-26.7 177.1-74.1l.1-.1C477.7 385.4 504 322.6 504 256 504 119 393 8 256 8zm0 392.7c-49.5 0-95.6-19.3-130.4-54-34.8-34.8-54.1-80.9-54.1-130.4 0-49.5 19.3-95.6 54.1-130.4 34.8-34.8 80.9-54.1 130.4-54.1s95.6 19.3 130.4 54.1c34.8 34.8 54.1 80.9 54.1 130.4 0 49.5-19.3 95.6-54.1 130.4-34.9 34.8-80.9 54.1-130.4 54.1z"
						</svg>